<mxfile host="app.diagrams.net" agent="Mozilla/5.0 (X11; Linux x86_64) AppleWebKit/537.36 (KHTML, like Gecko) Chrome/136.0.0.0 Safari/537.36" version="27.0.6">
  <diagram name="Auth Flow" id="8UVMLKbZSEgGyt7VQK05">
    <mxGraphModel dx="1356" dy="764" grid="1" gridSize="10" guides="1" tooltips="1" connect="1" arrows="1" fold="1" page="1" pageScale="1" pageWidth="1169" pageHeight="827" math="0" shadow="0">
      <root>
        <mxCell id="0" />
        <mxCell id="1" parent="0" />
        <mxCell id="Aw9IWXo-AwVBwENLMZRi-1" value="HTTP POST /auth/register" style="rounded=1;whiteSpace=wrap;html=1;" vertex="1" parent="1">
          <mxGeometry x="60" y="90" width="160" height="40" as="geometry" />
        </mxCell>
        <mxCell id="Aw9IWXo-AwVBwENLMZRi-2" value="AuthController.register" style="rounded=1;whiteSpace=wrap;html=1;" vertex="1" parent="1">
          <mxGeometry x="60" y="150" width="160" height="40" as="geometry" />
        </mxCell>
        <mxCell id="Aw9IWXo-AwVBwENLMZRi-3" value="AuthService.register" style="rounded=1;whiteSpace=wrap;html=1;" vertex="1" parent="1">
          <mxGeometry x="60" y="210" width="160" height="40" as="geometry" />
        </mxCell>
        <mxCell id="Aw9IWXo-AwVBwENLMZRi-4" value="Hash password (bcrypt)" style="rounded=1;whiteSpace=wrap;html=1;" vertex="1" parent="1">
          <mxGeometry x="60" y="270" width="160" height="40" as="geometry" />
        </mxCell>
        <mxCell id="Aw9IWXo-AwVBwENLMZRi-5" value="UserRepository.save" style="rounded=1;whiteSpace=wrap;html=1;" vertex="1" parent="1">
          <mxGeometry x="60" y="330" width="160" height="40" as="geometry" />
        </mxCell>
        <mxCell id="Aw9IWXo-AwVBwENLMZRi-6" value="Generate tokens" style="rounded=1;whiteSpace=wrap;html=1;" vertex="1" parent="1">
          <mxGeometry x="60" y="390" width="160" height="40" as="geometry" />
        </mxCell>
        <mxCell id="Aw9IWXo-AwVBwENLMZRi-7" value="HTTP POST /auth/login" style="rounded=1;whiteSpace=wrap;html=1;" vertex="1" parent="1">
          <mxGeometry x="340" y="90" width="160" height="40" as="geometry" />
        </mxCell>
        <mxCell id="Aw9IWXo-AwVBwENLMZRi-8" value="AuthController.login" style="rounded=1;whiteSpace=wrap;html=1;" vertex="1" parent="1">
          <mxGeometry x="340" y="150" width="160" height="40" as="geometry" />
        </mxCell>
        <mxCell id="Aw9IWXo-AwVBwENLMZRi-9" value="AuthService.validateUser" style="rounded=1;whiteSpace=wrap;html=1;" vertex="1" parent="1">
          <mxGeometry x="340" y="210" width="160" height="40" as="geometry" />
        </mxCell>
        <mxCell id="Aw9IWXo-AwVBwENLMZRi-10" value="Compare password" style="rounded=1;whiteSpace=wrap;html=1;" vertex="1" parent="1">
          <mxGeometry x="340" y="270" width="160" height="40" as="geometry" />
        </mxCell>
        <mxCell id="Aw9IWXo-AwVBwENLMZRi-11" value="AuthService.login" style="rounded=1;whiteSpace=wrap;html=1;" vertex="1" parent="1">
          <mxGeometry x="340" y="330" width="160" height="40" as="geometry" />
        </mxCell>
        <mxCell id="Aw9IWXo-AwVBwENLMZRi-12" value="Protected Route Request" style="rounded=1;whiteSpace=wrap;html=1;" vertex="1" parent="1">
          <mxGeometry x="620" y="90" width="180" height="40" as="geometry" />
        </mxCell>
        <mxCell id="Aw9IWXo-AwVBwENLMZRi-13" value="JwtAuthGuard" style="rounded=1;whiteSpace=wrap;html=1;" vertex="1" parent="1">
          <mxGeometry x="620" y="150" width="180" height="40" as="geometry" />
        </mxCell>
        <mxCell id="Aw9IWXo-AwVBwENLMZRi-14" value="JwtService.verify" style="rounded=1;whiteSpace=wrap;html=1;" vertex="1" parent="1">
          <mxGeometry x="620" y="210" width="180" height="40" as="geometry" />
        </mxCell>
        <mxCell id="Aw9IWXo-AwVBwENLMZRi-15" value="" style="endArrow=classic;html=1;rounded=0;" edge="1" parent="1">
          <mxGeometry width="50" height="50" relative="1" as="geometry">
            <mxPoint x="140" y="130" as="sourcePoint" />
            <mxPoint x="140" y="150" as="targetPoint" />
          </mxGeometry>
        </mxCell>
        <mxCell id="Aw9IWXo-AwVBwENLMZRi-16" value="" style="endArrow=classic;html=1;rounded=0;" edge="1" parent="1">
          <mxGeometry width="50" height="50" relative="1" as="geometry">
            <mxPoint x="139.5" y="190" as="sourcePoint" />
            <mxPoint x="139.5" y="210" as="targetPoint" />
          </mxGeometry>
        </mxCell>
        <mxCell id="Aw9IWXo-AwVBwENLMZRi-17" value="" style="endArrow=classic;html=1;rounded=0;" edge="1" parent="1">
          <mxGeometry width="50" height="50" relative="1" as="geometry">
            <mxPoint x="139.5" y="250" as="sourcePoint" />
            <mxPoint x="139.5" y="270" as="targetPoint" />
          </mxGeometry>
        </mxCell>
        <mxCell id="Aw9IWXo-AwVBwENLMZRi-18" value="" style="endArrow=classic;html=1;rounded=0;" edge="1" parent="1">
          <mxGeometry width="50" height="50" relative="1" as="geometry">
            <mxPoint x="139.5" y="310" as="sourcePoint" />
            <mxPoint x="139.5" y="330" as="targetPoint" />
          </mxGeometry>
        </mxCell>
        <mxCell id="Aw9IWXo-AwVBwENLMZRi-19" value="" style="endArrow=classic;html=1;rounded=0;" edge="1" parent="1">
          <mxGeometry width="50" height="50" relative="1" as="geometry">
            <mxPoint x="139.5" y="370" as="sourcePoint" />
            <mxPoint x="139.5" y="390" as="targetPoint" />
          </mxGeometry>
        </mxCell>
        <mxCell id="Aw9IWXo-AwVBwENLMZRi-20" value="&lt;b&gt;&lt;font style=&quot;font-size: 17px;&quot;&gt;Register&lt;/font&gt;&lt;/b&gt;" style="text;strokeColor=none;align=center;fillColor=none;html=1;verticalAlign=middle;whiteSpace=wrap;rounded=0;" vertex="1" parent="1">
          <mxGeometry x="100" y="40" width="80" height="40" as="geometry" />
        </mxCell>
        <mxCell id="Aw9IWXo-AwVBwENLMZRi-22" value="" style="endArrow=classic;html=1;rounded=0;" edge="1" parent="1">
          <mxGeometry width="50" height="50" relative="1" as="geometry">
            <mxPoint x="419.5" y="130" as="sourcePoint" />
            <mxPoint x="419.5" y="150" as="targetPoint" />
          </mxGeometry>
        </mxCell>
        <mxCell id="Aw9IWXo-AwVBwENLMZRi-24" value="" style="endArrow=classic;html=1;rounded=0;" edge="1" parent="1">
          <mxGeometry width="50" height="50" relative="1" as="geometry">
            <mxPoint x="419.5" y="190" as="sourcePoint" />
            <mxPoint x="419.5" y="210" as="targetPoint" />
          </mxGeometry>
        </mxCell>
        <mxCell id="Aw9IWXo-AwVBwENLMZRi-25" value="" style="endArrow=classic;html=1;rounded=0;" edge="1" parent="1">
          <mxGeometry width="50" height="50" relative="1" as="geometry">
            <mxPoint x="419.5" y="250" as="sourcePoint" />
            <mxPoint x="419.5" y="270" as="targetPoint" />
          </mxGeometry>
        </mxCell>
        <mxCell id="Aw9IWXo-AwVBwENLMZRi-26" value="" style="endArrow=classic;html=1;rounded=0;" edge="1" parent="1">
          <mxGeometry width="50" height="50" relative="1" as="geometry">
            <mxPoint x="419.5" y="310" as="sourcePoint" />
            <mxPoint x="419.5" y="330" as="targetPoint" />
          </mxGeometry>
        </mxCell>
        <mxCell id="Aw9IWXo-AwVBwENLMZRi-27" value="" style="endArrow=classic;html=1;rounded=0;" edge="1" parent="1">
          <mxGeometry width="50" height="50" relative="1" as="geometry">
            <mxPoint x="709.5" y="130" as="sourcePoint" />
            <mxPoint x="709.5" y="150" as="targetPoint" />
          </mxGeometry>
        </mxCell>
        <mxCell id="Aw9IWXo-AwVBwENLMZRi-28" value="" style="endArrow=classic;html=1;rounded=0;" edge="1" parent="1">
          <mxGeometry width="50" height="50" relative="1" as="geometry">
            <mxPoint x="709.5" y="190" as="sourcePoint" />
            <mxPoint x="709.5" y="210" as="targetPoint" />
          </mxGeometry>
        </mxCell>
        <mxCell id="Aw9IWXo-AwVBwENLMZRi-30" value="&lt;b&gt;&lt;font style=&quot;font-size: 17px;&quot;&gt;Login&lt;/font&gt;&lt;/b&gt;" style="text;strokeColor=none;align=center;fillColor=none;html=1;verticalAlign=middle;whiteSpace=wrap;rounded=0;" vertex="1" parent="1">
          <mxGeometry x="370" y="40" width="80" height="40" as="geometry" />
        </mxCell>
      </root>
    </mxGraphModel>
  </diagram>
</mxfile>
